<?xml version="1.0" encoding="iso-8859-1"?>
<!-- Generator: Adobe Illustrator 19.0.0, SVG Export Plug-In . SVG Version: 6.00 Build 0)  -->
<svg version="1.1" id="Capa_1" xmlns="http://www.w3.org/2000/svg" x="0px" y="0px"
     viewBox="0 0 512 512" style="enable-background:new 0 0 512 512;" xml:space="preserve">
<g>
	<g>
		<g>
			<circle cx="256.037" cy="293.994" r="19.997"/>
            <path d="M461.158,214.006l50.766-87.611v-15.374c0-0.583,0.013-1.297,0.026-2.129c0.208-12.86,0.842-51.996-24.667-77.922
				c-14.974-15.219-35.614-22.935-61.346-22.935H86.062c-25.732,0-46.373,7.717-61.346,22.935
				C-0.793,56.896-0.159,96.031,0.049,108.892c0.014,0.832,0.026,1.546,0.026,2.129v15.374l50.766,87.611H0.075v289.958H512V214.006
				H461.158z M53.223,59.021c7.278-7.396,18.019-10.99,32.839-10.99h339.874c14.82,0,25.561,3.595,32.839,10.99
				c8.317,8.453,11.45,21.15,12.596,32.003H40.627C41.773,80.172,44.906,67.474,53.223,59.021z M48.977,131.018h414.045
				l-48.087,82.988H97.064L48.977,131.018z M296.031,254v79.988h-79.988V254H296.031z M40.069,463.969v-38.994
				c21.717,0,39.434,17.403,39.969,38.994H40.069z M472.006,463.969h-39.969c0.534-21.591,18.251-38.994,39.969-38.994V463.969z
				 M472.006,384.981c-43.771,0-79.423,35.344-79.963,78.988h-272.01c-0.54-43.645-36.193-78.988-79.963-78.988V254h135.98v119.982
				h159.977V254h135.98V384.981z"/>
		</g>
	</g>
</g>
    <g>
</g>
    <g>
</g>
    <g>
</g>
    <g>
</g>
    <g>
</g>
    <g>
</g>
    <g>
</g>
    <g>
</g>
    <g>
</g>
    <g>
</g>
    <g>
</g>
    <g>
</g>
    <g>
</g>
    <g>
</g>
    <g>
</g>
</svg>
